<svg xmlns="http://www.w3.org/2000/svg" width="105" height="30" viewBox="0 0 105 30" fill="none">
  <g clip-path="url(#clip0_384_1029)">
    <path d="M0.408203 25.1937C0.408203 26.4234 0.902253 27.5344 1.7185 28.3434C2.52402 29.1523 3.63026 29.6593 4.85464 29.6593H99.9265C102.365 29.6593 104.373 27.653 104.373 25.1937C104.373 23.9641 103.879 22.8531 103.063 22.0442C102.257 21.2352 101.151 20.7282 99.9265 20.7282H95.4373C93.6652 16.5863 89.5623 13.6955 84.7939 13.6955C81.5825 13.6955 78.6829 15.0115 76.5776 17.1256C73.7742 12.358 68.6081 9.1545 62.7014 9.1545C61.0795 9.1545 59.5112 9.40262 58.0292 9.84483C54.9362 3.99866 48.8249 0.0292969 41.7686 0.0292969C33.3054 0.0292969 26.1846 5.76764 24.0366 13.5769C22.4793 12.7895 20.7179 12.3473 18.8491 12.3473C13.5757 12.3473 9.11849 15.8852 7.72224 20.739H4.85464C2.41662 20.739 0.408203 22.7453 0.408203 25.2046V25.1937Z" fill="url(#paint0_linear_384_1029)"/>
  </g>
  <defs>
    <linearGradient id="paint0_linear_384_1029" x1="52.3799" y1="9.14375" x2="52.3799" y2="59.9365" gradientUnits="userSpaceOnUse">
      <stop stop-color="white"/>
      <stop offset="0.22" stop-color="white" stop-opacity="0.76"/>
      <stop offset="0.6" stop-color="white" stop-opacity="0.36"/>
      <stop offset="0.87" stop-color="white" stop-opacity="0.1"/>
      <stop offset="1" stop-color="white" stop-opacity="0"/>
    </linearGradient>
    <clipPath id="clip0_384_1029">
      <rect width="103.965" height="29.63" fill="white" transform="translate(0.408203 0.0292969)"/>
    </clipPath>
  </defs>
</svg>