<svg xmlns="http://www.w3.org/2000/svg" width="117" height="34" viewBox="0 0 117 34" fill="none">
  <g clip-path="url(#clip0_384_1037)">
    <path d="M0.216797 28.0983C0.216797 29.4699 0.767871 30.7091 1.67834 31.6115C2.57683 32.5138 3.81075 33.0793 5.17645 33.0793H111.222C113.941 33.0793 116.182 30.8415 116.182 28.0983C116.182 26.7267 115.631 25.4875 114.72 24.5852C113.822 23.6828 112.588 23.1174 111.222 23.1174H106.215C104.238 18.4973 99.6614 15.2729 94.3426 15.2729C90.7605 15.2729 87.5262 16.7408 85.1779 19.0989C82.0509 13.7811 76.2886 10.2078 69.7001 10.2078C67.891 10.2078 66.1417 10.4845 64.4886 10.9778C61.0387 4.45681 54.2219 0.0292969 46.3512 0.0292969C36.9111 0.0292969 28.9684 6.42998 26.5724 15.1406C24.8354 14.2624 22.8707 13.7691 20.7862 13.7691C14.9041 13.7691 9.93245 17.7153 8.37504 23.1294H5.17645C2.45703 23.1294 0.216797 25.3672 0.216797 28.1104V28.0983Z" fill="url(#paint0_linear_384_1037)"/>
  </g>
  <defs>
    <linearGradient id="paint0_linear_384_1037" x1="58.1873" y1="10.1958" x2="58.1873" y2="66.8512" gradientUnits="userSpaceOnUse">
      <stop stop-color="white"/>
      <stop offset="0.22" stop-color="white" stop-opacity="0.76"/>
      <stop offset="0.6" stop-color="white" stop-opacity="0.36"/>
      <stop offset="0.87" stop-color="white" stop-opacity="0.1"/>
      <stop offset="1" stop-color="white" stop-opacity="0"/>
    </linearGradient>
    <clipPath id="clip0_384_1037">
      <rect width="115.965" height="33.05" fill="white" transform="translate(0.216797 0.0292969)"/>
    </clipPath>
  </defs>
</svg>