<svg xmlns="http://www.w3.org/2000/svg" width="219" height="63" viewBox="0 0 219 63" fill="none">
  <g clip-path="url(#clip0_384_1068)">
    <path d="M0.630859 52.7472C0.630859 55.3032 1.66469 57.6126 3.37274 59.2941C5.05831 60.9757 7.3732 62.0295 9.93528 62.0295H208.879C213.98 62.0295 218.183 57.8592 218.183 52.7472C218.183 50.1913 217.149 47.8819 215.441 46.2003C213.755 44.5187 211.441 43.4649 208.879 43.4649H199.484C195.776 34.8554 187.191 28.8466 177.212 28.8466C170.492 28.8466 164.424 31.5819 160.019 35.9764C154.153 26.0665 143.343 19.4075 130.982 19.4075C127.589 19.4075 124.308 19.9232 121.206 20.8423C114.733 8.6903 101.945 0.439453 87.1796 0.439453C69.4698 0.439453 54.5693 12.3673 50.0744 28.6C46.8157 26.9633 43.1299 26.044 39.2194 26.044C28.1844 26.044 18.8575 33.398 15.9359 43.4874H9.93528C4.8336 43.4874 0.630859 47.6577 0.630859 52.7697V52.7472Z" fill="white"/>
    <path d="M0.630859 52.7472C0.630859 55.3032 1.66469 57.6126 3.37274 59.2941C5.05831 60.9757 7.3732 62.0295 9.93528 62.0295H208.879C213.98 62.0295 218.183 57.8592 218.183 52.7472C218.183 50.1913 217.149 47.8819 215.441 46.2003C213.755 44.5187 211.441 43.4649 208.879 43.4649H199.484C195.776 34.8554 187.191 28.8466 177.212 28.8466C170.492 28.8466 164.424 31.5819 160.019 35.9764C154.153 26.0665 143.343 19.4075 130.982 19.4075C127.589 19.4075 124.308 19.9232 121.206 20.8423C114.733 8.6903 101.945 0.439453 87.1796 0.439453C69.4698 0.439453 54.5693 12.3673 50.0744 28.6C46.8157 26.9633 43.1299 26.044 39.2194 26.044C28.1844 26.044 18.8575 33.398 15.9359 43.4874H9.93528C4.8336 43.4874 0.630859 47.6577 0.630859 52.7697V52.7472Z" fill="white"/>
  </g>
  <defs>
    <clipPath id="clip0_384_1068">
      <rect width="217.552" height="61.59" fill="white" transform="translate(0.630859 0.439453)"/>
    </clipPath>
  </defs>
</svg>