<svg width="560" height="293" viewBox="0 0 560 293" fill="none" xmlns="http://www.w3.org/2000/svg">
<path d="M0 166.361C0 166.361 15.4018 134.184 67.8365 134.184C120.271 134.184 130.376 179.236 130.376 179.236C130.376 179.236 154.288 161.774 181.879 170.039C209.469 178.304 210.377 204.056 210.377 204.056C210.377 204.056 226.931 193.951 249.004 204.056C271.077 214.16 274.755 232.554 274.755 232.554C274.755 232.554 298.667 219.678 317.061 232.554C335.455 245.43 335.455 256.466 335.455 256.466C335.455 256.466 362.114 240.843 386.958 261.052C386.958 261.052 403.512 250.016 420.067 261.052C436.621 272.089 442.14 292.91 442.14 292.91H0V166.336V166.361Z" fill="url(#paint0_linear_486_48)"/>
<path d="M0 15.8007C0 15.8007 5.51816 -3.20619 34.9483 0.472576C64.3785 4.15134 68.0573 45.2309 68.0573 45.2309C68.0573 45.2309 79.7068 31.1781 98.7137 35.1512C117.721 39.1243 117.108 63.0117 117.108 63.0117C117.108 63.0117 136.728 32.3552 169.224 51.3622C201.719 70.3692 187.617 99.1863 187.617 99.1863C187.617 99.1863 196.814 85.6974 208.464 91.8287C220.113 97.96 214.595 110.835 214.595 110.835C214.595 110.835 220.113 99.7994 232.989 104.704C245.865 109.609 244.025 120.645 244.025 120.645C244.025 120.645 256.288 101.639 276.521 112.675C296.754 123.711 293.689 136.587 293.689 136.587C293.689 136.587 298.594 107.77 335.995 116.967C373.395 126.164 370.526 164.374 370.526 164.374C370.526 164.374 385.241 153.337 399.956 167.243C414.671 181.149 410.576 194.221 410.576 194.221C410.576 194.221 424.481 186.863 431.839 197.9C439.196 208.936 435.518 220.782 435.518 220.782C435.518 220.782 455.555 215.46 461.269 230.592C461.269 230.592 496.389 207.734 531.338 234.393C566.286 261.052 559.174 292.91 559.174 292.91H0V15.7763V15.8007Z" fill="url(#paint1_linear_486_48)"/>
<defs>
<linearGradient id="paint0_linear_486_48" x1="227.716" y1="160.278" x2="205.643" y2="390.226" gradientUnits="userSpaceOnUse">
<stop stop-color="white"/>
<stop offset="0.22" stop-color="white" stop-opacity="0.76"/>
<stop offset="0.6" stop-color="white" stop-opacity="0.36"/>
<stop offset="0.87" stop-color="white" stop-opacity="0.1"/>
<stop offset="1" stop-color="white" stop-opacity="0"/>
</linearGradient>
<linearGradient id="paint1_linear_486_48" x1="398.755" y1="-345.871" x2="241.794" y2="313.045" gradientUnits="userSpaceOnUse">
<stop offset="0.48" stop-color="white"/>
<stop offset="0.59" stop-color="white" stop-opacity="0.76"/>
<stop offset="0.79" stop-color="white" stop-opacity="0.36"/>
<stop offset="0.93" stop-color="white" stop-opacity="0.1"/>
<stop offset="1" stop-color="white" stop-opacity="0"/>
</linearGradient>
</defs>
</svg>
