<svg width="560" height="293" viewBox="0 0 560 293" fill="none" xmlns="http://www.w3.org/2000/svg">
<path d="M559.769 15.8007C559.769 15.8007 554.251 -3.20619 524.82 0.472576C495.39 4.15134 491.711 45.2309 491.711 45.2309C491.711 45.2309 480.062 31.1781 461.055 35.1512C442.048 39.1243 442.661 63.0117 442.661 63.0117C442.661 63.0117 423.041 32.3552 390.545 51.3622C358.049 70.3692 372.151 99.1863 372.151 99.1863C372.151 99.1863 362.954 85.6974 351.305 91.8287C339.655 97.96 345.174 110.835 345.174 110.835C345.174 110.835 339.655 99.7994 326.78 104.704C313.904 109.609 315.743 120.645 315.743 120.645C315.743 120.645 303.481 101.639 283.248 112.675C263.014 123.711 266.08 136.587 266.08 136.587C266.08 136.587 261.175 107.77 223.774 116.967C186.373 126.164 189.243 164.374 189.243 164.374C189.243 164.374 174.528 153.337 159.813 167.243C145.097 181.149 149.193 194.221 149.193 194.221C149.193 194.221 135.287 186.863 127.93 197.9C120.572 208.936 124.251 220.782 124.251 220.782C124.251 220.782 104.214 215.46 98.4996 230.592C98.4996 230.592 63.3795 207.734 28.4312 234.393C-6.51715 261.052 0.595215 292.91 0.595215 292.91H559.769V15.7763V15.8007Z" fill="url(#paint0_linear_510_38)"/>
<path d="M559.769 166.361C559.769 166.361 544.367 134.184 491.932 134.184C439.497 134.184 429.393 179.236 429.393 179.236C429.393 179.236 405.481 161.774 377.89 170.039C350.299 178.304 349.392 204.056 349.392 204.056C349.392 204.056 332.837 193.951 310.765 204.056C288.692 214.16 285.013 232.554 285.013 232.554C285.013 232.554 261.101 219.678 242.707 232.554C224.314 245.43 224.314 256.466 224.314 256.466C224.314 256.466 197.655 240.843 172.811 261.052C172.811 261.052 156.256 250.016 139.702 261.052C123.147 272.089 117.629 292.91 117.629 292.91H559.769V166.336V166.361Z" fill="url(#paint1_linear_510_38)"/>
<defs>
<linearGradient id="paint0_linear_510_38" x1="161.014" y1="-345.871" x2="317.975" y2="313.045" gradientUnits="userSpaceOnUse">
<stop offset="0.48" stop-color="white"/>
<stop offset="0.59" stop-color="white" stop-opacity="0.76"/>
<stop offset="0.79" stop-color="white" stop-opacity="0.36"/>
<stop offset="0.93" stop-color="white" stop-opacity="0.1"/>
<stop offset="1" stop-color="white" stop-opacity="0"/>
</linearGradient>
<linearGradient id="paint1_linear_510_38" x1="332.053" y1="160.278" x2="354.125" y2="390.226" gradientUnits="userSpaceOnUse">
<stop stop-color="white"/>
<stop offset="0.22" stop-color="white" stop-opacity="0.76"/>
<stop offset="0.6" stop-color="white" stop-opacity="0.36"/>
<stop offset="0.87" stop-color="white" stop-opacity="0.1"/>
<stop offset="1" stop-color="white" stop-opacity="0"/>
</linearGradient>
</defs>
</svg>
