<svg xmlns="http://www.w3.org/2000/svg" width="117" height="34" viewBox="0 0 117 34" fill="none">
  <g clip-path="url(#clip0_384_1033)">
    <path d="M0.818359 28.0983C0.818359 29.4699 1.36943 30.7091 2.2799 31.6115C3.17839 32.5138 4.41232 33.0793 5.77802 33.0793H111.823C114.543 33.0793 116.783 30.8415 116.783 28.0983C116.783 26.7267 116.232 25.4875 115.322 24.5852C114.423 23.6828 113.19 23.1174 111.823 23.1174H106.816C104.839 18.4973 100.263 15.2729 94.9442 15.2729C91.362 15.2729 88.1278 16.7408 85.7795 19.0989C82.6525 13.7811 76.8902 10.2078 70.3016 10.2078C68.4926 10.2078 66.7433 10.4845 65.0902 10.9778C61.6402 4.45681 54.8235 0.0292969 46.9527 0.0292969C37.5126 0.0292969 29.57 6.42998 27.174 15.1406C25.437 14.2624 23.4722 13.7691 21.3878 13.7691C15.5057 13.7691 10.534 17.7153 8.97661 23.1294H5.77802C3.05859 23.1294 0.818359 25.3672 0.818359 28.1104V28.0983Z" fill="url(#paint0_linear_384_1033)"/>
  </g>
  <defs>
    <linearGradient id="paint0_linear_384_1033" x1="58.7888" y1="10.1958" x2="58.7888" y2="66.8512" gradientUnits="userSpaceOnUse">
      <stop stop-color="white"/>
      <stop offset="0.22" stop-color="white" stop-opacity="0.76"/>
      <stop offset="0.6" stop-color="white" stop-opacity="0.36"/>
      <stop offset="0.87" stop-color="white" stop-opacity="0.1"/>
      <stop offset="1" stop-color="white" stop-opacity="0"/>
    </linearGradient>
    <clipPath id="clip0_384_1033">
      <rect width="115.965" height="33.05" fill="white" transform="translate(0.818359 0.0292969)"/>
    </clipPath>
  </defs>
</svg>