<svg xmlns="http://www.w3.org/2000/svg" width="295" height="84" viewBox="0 0 295 84" fill="none">
  <path d="M0.409209 71.1883C0.709996 74.6263 2.37765 77.7325 4.88177 79.9943C7.35555 82.2562 10.6052 83.6736 14.0645 83.6736H282.682C289.569 83.6736 294.753 78.0643 294.152 71.1883C293.851 67.7503 292.183 64.6441 289.679 62.3822C287.205 60.1203 283.956 58.7028 280.497 58.7028H267.812C261.792 47.1223 249.494 39.0401 236.02 39.0401C226.947 39.0401 219.076 42.7193 213.644 48.6301C204.558 35.3005 189.178 26.3436 172.489 26.3436C167.907 26.3436 163.537 27.0372 159.458 28.2736C149.288 11.9281 131.051 0.830078 111.113 0.830078C87.2013 0.830078 68.486 16.8741 64.3272 38.7083C59.7346 36.5068 54.6499 35.2703 49.3698 35.2703C34.4702 35.2703 22.7422 45.1621 19.9846 58.733H11.8825C4.99414 58.733 -0.189722 64.3425 0.411851 71.2185L0.409209 71.1883Z" fill="white"/>
</svg>