<svg width="1920" height="961" viewBox="0 0 1920 961" fill="none" xmlns="http://www.w3.org/2000/svg">
<g clip-path="url(#clip0_486_50)">
<rect width="1920" height="961" fill="#0F3029"/>
<g filter="url(#filter0_d_486_50)">
<rect width="1920" height="960" transform="translate(0 1)" fill="#0F3029"/>
</g>
<g opacity="0.1" filter="url(#filter1_d_486_50)">
<mask id="path-1-inside-1_486_50" fill="white">
<path d="M-171.125 1096L811.5 425L-394.048 1096H-171.125ZM153.68 1096L811.5 425L-14.4498 1096H153.73H153.68ZM417.355 1096L811.5 425L277.711 1096H417.355ZM650.721 1096L811.5 425L525.067 1096H650.771H650.721ZM-479 671.593L166.25 548.297L811.5 425L-479 591.851V671.593ZM872.223 1096L811.5 425L750.777 1096H872.173H872.223ZM-479 1032.96L811.5 425L-479 916.943V1032.96ZM-479 529.582L811.5 424.958L-479 455.149V529.539V529.582ZM-479 833.518L811.5 425L-479 741.357V833.476V833.518ZM2102 916.943L811.5 425L2102 1032.96V916.943ZM2102 741.357L811.5 424.958L2102 833.476V741.357ZM2102 455.192L811.5 425L2102 529.624V455.236V455.192ZM2017.05 1096L811.5 425L1794.12 1096H2017.05ZM1345.29 1096L811.5 425L1205.65 1096H1345.29ZM1097.94 1096L811.5 425L972.281 1096H1097.99H1097.94ZM1637.46 1096L811.5 425L1469.32 1096L1637.46 1096ZM2102 591.851L811.5 424.958L2102 671.551V591.807V591.851ZM972.281 -246L811.5 425L1097.94 -246H972.229H972.281ZM1469.32 -246L811.5 425L1637.46 -246H1469.32ZM1205.65 -246L811.5 425L1345.29 -246L1205.65 -246ZM2102 -182.96L811.5 425L2102 -66.9436V-182.96ZM1794.23 -246L811.5 425L2017.15 -246H1794.23ZM2102 320.376L811.5 425L2102 394.808V320.418V320.376ZM2102 16.5244L811.5 425L2102 108.686V16.5668V16.5244ZM2102 178.364L811.5 424.958L2102 258.064V178.322V178.364ZM-479 394.764L811.5 424.958L-479 320.376V394.764ZM-479 108.643L811.5 424.958L-479 16.5244V108.643ZM-394.2 -246L811.45 425L-171.226 -246L-394.2 -246ZM-479 -66.9436L811.5 425L-479 -182.96V-66.9436ZM-479 258.106L811.5 425L-479 178.364L-479 258.106ZM-14.4498 -246L811.5 425L153.68 -246H-14.4498ZM525.067 -246L811.5 425L650.721 -246H525.015H525.067ZM750.777 -246L811.5 425L872.223 -246L750.827 -246H750.777ZM277.711 -246L811.5 425L417.355 -246H277.711Z"/>
</mask>
<path d="M-171.125 1096L811.5 425L-394.048 1096H-171.125ZM153.68 1096L811.5 425L-14.4498 1096H153.73H153.68ZM417.355 1096L811.5 425L277.711 1096H417.355ZM650.721 1096L811.5 425L525.067 1096H650.771H650.721ZM-479 671.593L166.25 548.297L811.5 425L-479 591.851V671.593ZM872.223 1096L811.5 425L750.777 1096H872.173H872.223ZM-479 1032.96L811.5 425L-479 916.943V1032.96ZM-479 529.582L811.5 424.958L-479 455.149V529.539V529.582ZM-479 833.518L811.5 425L-479 741.357V833.476V833.518ZM2102 916.943L811.5 425L2102 1032.96V916.943ZM2102 741.357L811.5 424.958L2102 833.476V741.357ZM2102 455.192L811.5 425L2102 529.624V455.236V455.192ZM2017.05 1096L811.5 425L1794.12 1096H2017.05ZM1345.29 1096L811.5 425L1205.65 1096H1345.29ZM1097.94 1096L811.5 425L972.281 1096H1097.99H1097.94ZM1637.46 1096L811.5 425L1469.32 1096L1637.46 1096ZM2102 591.851L811.5 424.958L2102 671.551V591.807V591.851ZM972.281 -246L811.5 425L1097.94 -246H972.229H972.281ZM1469.32 -246L811.5 425L1637.46 -246H1469.32ZM1205.65 -246L811.5 425L1345.29 -246L1205.65 -246ZM2102 -182.96L811.5 425L2102 -66.9436V-182.96ZM1794.23 -246L811.5 425L2017.15 -246H1794.23ZM2102 320.376L811.5 425L2102 394.808V320.418V320.376ZM2102 16.5244L811.5 425L2102 108.686V16.5668V16.5244ZM2102 178.364L811.5 424.958L2102 258.064V178.322V178.364ZM-479 394.764L811.5 424.958L-479 320.376V394.764ZM-479 108.643L811.5 424.958L-479 16.5244V108.643ZM-394.2 -246L811.45 425L-171.226 -246L-394.2 -246ZM-479 -66.9436L811.5 425L-479 -182.96V-66.9436ZM-479 258.106L811.5 425L-479 178.364L-479 258.106ZM-14.4498 -246L811.5 425L153.68 -246H-14.4498ZM525.067 -246L811.5 425L650.721 -246H525.015H525.067ZM750.777 -246L811.5 425L872.223 -246L750.827 -246H750.777ZM277.711 -246L811.5 425L417.355 -246H277.711Z" fill="#53764E"/>
<path d="M-171.125 1096V1097H-170.816L-170.561 1096.83L-171.125 1096ZM-394.048 1096L-394.534 1095.13L-397.901 1097H-394.048V1096ZM153.68 1096L152.966 1095.3L151.299 1097H153.68V1096ZM-14.4498 1096L-15.0803 1095.22L-17.2666 1097H-14.4498V1096ZM417.355 1096V1097H417.927L418.217 1096.51L417.355 1096ZM277.711 1096L276.929 1095.38L275.638 1097H277.711V1096ZM650.721 1096L649.748 1095.77L649.453 1097H650.721V1096ZM525.067 1096L524.147 1095.61L523.552 1097H525.067V1096ZM-479 671.593H-480V672.802L-478.812 672.575L-479 671.593ZM-479 591.851L-479.128 590.859L-480 590.972V591.851H-479ZM872.223 1096V1097H873.318L873.219 1095.91L872.223 1096ZM750.777 1096L749.781 1095.91L749.682 1097H750.777V1096ZM-479 1032.96H-480V1034.54L-478.574 1033.87L-479 1032.96ZM-479 916.943L-479.356 916.009L-480 916.255V916.943H-479ZM-479 529.582H-480V530.666L-478.919 530.578L-479 529.582ZM-479 455.149L-479.023 454.15L-480 454.173V455.149H-479ZM-479 833.518H-480V834.883L-478.698 834.471L-479 833.518ZM-479 741.357L-479.238 740.386L-480 740.572V741.357H-479ZM2102 916.943H2103V916.255L2102.36 916.009L2102 916.943ZM2102 1032.96L2101.57 1033.87L2103 1034.54V1032.96H2102ZM2102 741.357H2103V740.572L2102.24 740.386L2102 741.357ZM2102 833.476L2101.7 834.429L2103 834.841V833.476H2102ZM2102 455.192H2103V454.215L2102.02 454.192L2102 455.192ZM2102 529.624L2101.92 530.621L2103 530.708V529.624H2102ZM2017.05 1096V1097H2020.91L2017.54 1095.13L2017.05 1096ZM1794.12 1096L1793.56 1096.83L1793.81 1097H1794.12V1096ZM1345.29 1096V1097H1347.36L1346.07 1095.38L1345.29 1096ZM1205.65 1096L1204.78 1096.51L1205.07 1097H1205.65V1096ZM1097.94 1096L1097.02 1096.39L1097.27 1097H1097.94V1096ZM972.281 1096L971.309 1096.23L971.493 1097H972.281V1096ZM1637.46 1096V1097H1640.27L1638.09 1095.22L1637.46 1096ZM1469.32 1096L1468.61 1096.7L1468.9 1097H1469.32V1096ZM2102 591.851L2101.87 592.843L2103 592.989V591.851H2102ZM2102 671.551L2101.81 672.533L2103 672.76V671.551H2102ZM972.281 -246L973.254 -245.767L973.549 -247H972.281V-246ZM1097.94 -246L1098.85 -245.607L1099.45 -247H1097.94V-246ZM1469.32 -246V-247H1468.9L1468.61 -246.7L1469.32 -246ZM1637.46 -246L1638.09 -245.224L1640.27 -247H1637.46V-246ZM1205.65 -246V-247H1205.07L1204.78 -246.506L1205.65 -246ZM1345.29 -246L1346.07 -245.377L1347.36 -247H1345.29V-246ZM2102 -182.96H2103V-184.536L2101.57 -183.865L2102 -182.96ZM2102 -66.9436L2102.36 -66.0092L2103 -66.2546V-66.9436H2102ZM1794.23 -246V-247H1793.93L1793.67 -246.826L1794.23 -246ZM2017.15 -246L2017.63 -245.126L2021 -247H2017.15V-246ZM2102 320.376H2103V319.292L2101.92 319.379L2102 320.376ZM2102 394.808L2102.02 395.808L2103 395.785V394.808H2102ZM2102 16.5244H2103V15.159L2101.7 15.5711L2102 16.5244ZM2102 108.686L2102.24 109.657L2103 109.47V108.686H2102ZM2102 178.364L2102.19 179.346L2103 179.191V178.364H2102ZM2102 258.064L2102.13 259.056L2103 258.943V258.064H2102ZM-479 394.764H-480V395.741L-479.023 395.764L-479 394.764ZM-479 320.376L-478.919 319.379L-480 319.292V320.376H-479ZM-479 108.643H-480V109.428L-479.238 109.614L-479 108.643ZM-479 16.5244L-478.698 15.571L-480 15.1591V16.5244H-479ZM-394.2 -246V-247H-398.053L-394.686 -245.126L-394.2 -246ZM811.45 425L810.964 425.874L812.014 424.174L811.45 425ZM-171.226 -246L-170.663 -246.826L-170.918 -247H-171.226V-246ZM-479 -66.9436H-480V-66.2546L-479.356 -66.0092L-479 -66.9436ZM-479 -182.96L-478.574 -183.865L-480 -184.536V-182.96H-479ZM-479 258.106H-480V258.985L-479.128 259.098L-479 258.106ZM-479 178.364L-478.812 177.382L-480 177.155V178.364H-479ZM-14.4498 -246V-247H-17.2666L-15.0803 -245.224L-14.4498 -246ZM153.68 -246L154.394 -246.7L154.1 -247H153.68V-246ZM525.067 -246L525.986 -246.393L525.727 -247H525.067V-246ZM650.721 -246L651.693 -246.233L651.509 -247H650.721V-246ZM750.777 -246V-247H749.682L749.781 -245.91L750.777 -246ZM872.223 -246L873.219 -245.91L873.318 -247H872.223V-246ZM277.711 -246V-247H275.638L276.929 -245.377L277.711 -246ZM417.355 -246L418.217 -246.506L417.927 -247H417.355V-246ZM166.25 548.297L166.438 549.279L166.25 548.297ZM-170.561 1096.83L812.064 425.826L810.936 424.174L-171.689 1095.17L-170.561 1096.83ZM811.014 424.126L-394.534 1095.13L-393.562 1096.87L811.986 425.874L811.014 424.126ZM-394.048 1097H-171.125V1095H-394.048V1097ZM154.394 1096.7L812.214 425.7L810.786 424.3L152.966 1095.3L154.394 1096.7ZM810.87 424.224L-15.0803 1095.22L-13.8192 1096.78L812.13 425.776L810.87 424.224ZM-14.4498 1097H153.73V1095H-14.4498V1097ZM153.73 1095H153.68V1097H153.73V1095ZM418.217 1096.51L812.362 425.506L810.638 424.494L416.493 1095.49L418.217 1096.51ZM810.717 424.377L276.929 1095.38L278.494 1096.62L812.283 425.623L810.717 424.377ZM277.711 1097H417.355V1095H277.711V1097ZM651.693 1096.23L812.472 425.233L810.528 424.767L649.748 1095.77L651.693 1096.23ZM810.58 424.607L524.147 1095.61L525.986 1096.39L812.42 425.393L810.58 424.607ZM525.067 1097H650.771V1095H525.067V1097ZM650.771 1095H650.721V1097H650.771V1095ZM811.372 424.008L-479.128 590.859L-478.872 592.843L811.628 425.992L811.372 424.008ZM-480 591.851V671.593H-478V591.851H-480ZM873.219 1095.91L812.496 424.91L810.504 425.09L871.227 1096.09L873.219 1095.91ZM810.504 424.91L749.781 1095.91L751.773 1096.09L812.496 425.09L810.504 424.91ZM750.777 1097H872.173V1095H750.777V1097ZM872.173 1097H872.223V1095H872.173V1097ZM-478.574 1033.87L811.926 425.905L811.074 424.095L-479.426 1032.06L-478.574 1033.87ZM811.144 424.066L-479.356 916.009L-478.644 917.878L811.856 425.934L811.144 424.066ZM-480 916.943V1032.96H-478V916.943H-480ZM-478.919 530.578L811.581 425.954L811.419 423.961L-479.081 528.585L-478.919 530.578ZM811.477 423.958L-479.023 454.15L-478.977 456.149L811.523 425.957L811.477 423.958ZM-480 455.149V529.539H-478V455.149H-480ZM-480 529.539V529.582H-478V529.539H-480ZM-478.698 834.471L811.802 425.953L811.198 424.047L-479.302 832.565L-478.698 834.471ZM811.262 424.029L-479.238 740.386L-478.762 742.328L811.738 425.971L811.262 424.029ZM-480 741.357V833.476H-478V741.357H-480ZM-480 833.476V833.518H-478V833.476H-480ZM2102.36 916.009L811.856 424.066L811.144 425.934L2101.64 917.878L2102.36 916.009ZM811.074 425.905L2101.57 1033.87L2102.43 1032.06L811.926 424.095L811.074 425.905ZM2103 1032.96V916.943H2101V1032.96H2103ZM2102.24 740.386L811.738 423.986L811.262 425.929L2101.76 742.328L2102.24 740.386ZM811.198 425.911L2101.7 834.429L2102.3 832.522L811.802 424.004L811.198 425.911ZM2103 833.476V741.357H2101V833.476H2103ZM2102.02 454.192L811.523 424L811.477 426L2101.98 456.192L2102.02 454.192ZM811.419 425.997L2101.92 530.621L2102.08 528.627L811.581 424.003L811.419 425.997ZM2103 529.624V455.236H2101V529.624H2103ZM2103 455.236V455.192H2101V455.236H2103ZM2017.54 1095.13L811.986 424.126L811.014 425.874L2016.57 1096.87L2017.54 1095.13ZM810.936 425.826L1793.56 1096.83L1794.69 1095.17L812.064 424.174L810.936 425.826ZM1794.12 1097H2017.05V1095H1794.12V1097ZM1346.07 1095.38L812.283 424.377L810.717 425.623L1344.51 1096.62L1346.07 1095.38ZM810.638 425.506L1204.78 1096.51L1206.51 1095.49L812.362 424.494L810.638 425.506ZM1205.65 1097H1345.29V1095H1205.65V1097ZM1098.85 1095.61L812.42 424.607L810.58 425.393L1097.02 1096.39L1098.85 1095.61ZM810.528 425.233L971.309 1096.23L973.254 1095.77L812.472 424.767L810.528 425.233ZM972.281 1097H1097.99V1095H972.281V1097ZM1097.99 1095H1097.94V1097H1097.99V1095ZM1638.09 1095.22L812.13 424.224L810.87 425.776L1636.83 1096.78L1638.09 1095.22ZM810.786 425.7L1468.61 1096.7L1470.03 1095.3L812.214 424.3L810.786 425.7ZM1469.32 1097L1637.46 1097V1095L1469.32 1095V1097ZM2102.13 590.859L811.628 423.966L811.372 425.949L2101.87 592.843L2102.13 590.859ZM811.312 425.94L2101.81 672.533L2102.19 670.569L811.688 423.975L811.312 425.94ZM2103 671.551V591.807H2101V671.551H2103ZM2101 591.807V591.851H2103V591.807H2101ZM971.309 -246.233L810.528 424.767L812.472 425.233L973.254 -245.767L971.309 -246.233ZM812.42 425.393L1098.85 -245.607L1097.02 -246.393L810.58 424.607L812.42 425.393ZM1097.94 -247H972.229V-245H1097.94V-247ZM972.229 -245H972.281V-247H972.229V-245ZM1468.61 -246.7L810.786 424.3L812.214 425.7L1470.03 -245.3L1468.61 -246.7ZM812.13 425.776L1638.09 -245.224L1636.83 -246.776L810.87 424.224L812.13 425.776ZM1637.46 -247H1469.32V-245H1637.46V-247ZM1204.78 -246.506L810.638 424.494L812.362 425.506L1206.51 -245.494L1204.78 -246.506ZM812.283 425.623L1346.07 -245.377L1344.51 -246.623L810.717 424.377L812.283 425.623ZM1345.29 -247L1205.65 -247V-245L1345.29 -245V-247ZM2101.57 -183.865L811.074 424.095L811.926 425.905L2102.43 -182.055L2101.57 -183.865ZM811.856 425.934L2102.36 -66.0092L2101.64 -67.878L811.144 424.066L811.856 425.934ZM2103 -66.9436V-182.96H2101V-66.9436H2103ZM1793.67 -246.826L810.936 424.174L812.064 425.826L1794.8 -245.174L1793.67 -246.826ZM811.986 425.874L2017.63 -245.126L2016.66 -246.874L811.014 424.126L811.986 425.874ZM2017.15 -247H1794.23V-245H2017.15V-247ZM2101.92 319.379L811.419 424.003L811.581 425.997L2102.08 321.373L2101.92 319.379ZM811.523 426L2102.02 395.808L2101.98 393.808L811.477 424L811.523 426ZM2103 394.808V320.418H2101V394.808H2103ZM2103 320.418V320.376H2101V320.418H2103ZM2101.7 15.5711L811.198 424.047L811.802 425.953L2102.3 17.4778L2101.7 15.5711ZM811.738 425.971L2102.24 109.657L2101.76 107.714L811.262 424.029L811.738 425.971ZM2103 108.686V16.5668H2101V108.686H2103ZM2103 16.5668V16.5244H2101V16.5668H2103ZM2101.81 177.382L811.312 423.975L811.688 425.94L2102.19 179.346L2101.81 177.382ZM811.628 425.949L2102.13 259.056L2101.87 257.072L811.372 423.966L811.628 425.949ZM2103 258.064V178.322H2101V258.064H2103ZM2101 178.322V178.364H2103V178.322H2101ZM-479.023 395.764L811.477 425.957L811.523 423.958L-478.977 393.764L-479.023 395.764ZM811.581 423.961L-478.919 319.379L-479.081 321.373L811.419 425.954L811.581 423.961ZM-480 320.376V394.764H-478V320.376H-480ZM-479.238 109.614L811.262 425.929L811.738 423.986L-478.762 107.672L-479.238 109.614ZM811.802 424.004L-478.698 15.571L-479.302 17.4778L811.198 425.911L811.802 424.004ZM-480 16.5244V108.643H-478V16.5244H-480ZM-394.686 -245.126L810.964 425.874L811.936 424.126L-393.714 -246.874L-394.686 -245.126ZM812.014 424.174L-170.663 -246.826L-171.79 -245.174L810.886 425.826L812.014 424.174ZM-171.226 -247L-394.2 -247V-245L-171.226 -245V-247ZM-479.356 -66.0092L811.144 425.934L811.856 424.066L-478.644 -67.878L-479.356 -66.0092ZM811.926 424.095L-478.574 -183.865L-479.426 -182.055L811.074 425.905L811.926 424.095ZM-480 -182.96V-66.9436H-478V-182.96H-480ZM-479.128 259.098L811.372 425.992L811.628 424.008L-478.872 257.115L-479.128 259.098ZM811.688 424.018L-478.812 177.382L-479.188 179.346L811.312 425.982L811.688 424.018ZM-480 178.364L-480 258.106H-478L-478 178.364H-480ZM-15.0803 -245.224L810.87 425.776L812.13 424.224L-13.8192 -246.776L-15.0803 -245.224ZM812.214 424.3L154.394 -246.7L152.966 -245.3L810.786 425.7L812.214 424.3ZM153.68 -247H-14.4498V-245H153.68V-247ZM524.147 -245.607L810.58 425.393L812.42 424.607L525.986 -246.393L524.147 -245.607ZM812.472 424.767L651.693 -246.233L649.748 -245.767L810.528 425.233L812.472 424.767ZM650.721 -247H525.015V-245H650.721V-247ZM525.015 -245H525.067V-247H525.015V-245ZM749.781 -245.91L810.504 425.09L812.496 424.91L751.773 -246.09L749.781 -245.91ZM812.496 425.09L873.219 -245.91L871.227 -246.09L810.504 424.91L812.496 425.09ZM872.223 -247L750.827 -247V-245L872.223 -245V-247ZM750.827 -247H750.777V-245H750.827V-247ZM276.929 -245.377L810.717 425.623L812.283 424.377L278.494 -246.623L276.929 -245.377ZM812.362 424.494L418.217 -246.506L416.493 -245.494L810.638 425.506L812.362 424.494ZM417.355 -247H277.711V-245H417.355V-247ZM-478.812 672.575L166.438 549.279L166.062 547.314L-479.188 670.611L-478.812 672.575ZM166.438 549.279L811.688 425.982L811.312 424.018L166.062 547.314L166.438 549.279Z" fill="black" mask="url(#path-1-inside-1_486_50)"/>
</g>
</g>
<defs>
<filter id="filter0_d_486_50" x="-11" y="-10" width="1950" height="990" filterUnits="userSpaceOnUse" color-interpolation-filters="sRGB">
<feFlood flood-opacity="0" result="BackgroundImageFix"/>
<feColorMatrix in="SourceAlpha" type="matrix" values="0 0 0 0 0 0 0 0 0 0 0 0 0 0 0 0 0 0 127 0" result="hardAlpha"/>
<feOffset dx="4" dy="4"/>
<feGaussianBlur stdDeviation="7.5"/>
<feComposite in2="hardAlpha" operator="out"/>
<feColorMatrix type="matrix" values="0 0 0 0 0 0 0 0 0 0 0 0 0 0 0 0 0 0 0.1 0"/>
<feBlend mode="normal" in2="BackgroundImageFix" result="effect1_dropShadow_486_50"/>
<feBlend mode="normal" in="SourceGraphic" in2="effect1_dropShadow_486_50" result="shape"/>
</filter>
<filter id="filter1_d_486_50" x="-483" y="-246" width="2589" height="1350" filterUnits="userSpaceOnUse" color-interpolation-filters="sRGB">
<feFlood flood-opacity="0" result="BackgroundImageFix"/>
<feColorMatrix in="SourceAlpha" type="matrix" values="0 0 0 0 0 0 0 0 0 0 0 0 0 0 0 0 0 0 127 0" result="hardAlpha"/>
<feOffset dy="4"/>
<feGaussianBlur stdDeviation="2"/>
<feComposite in2="hardAlpha" operator="out"/>
<feColorMatrix type="matrix" values="0 0 0 0 0 0 0 0 0 0 0 0 0 0 0 0 0 0 0.1 0"/>
<feBlend mode="normal" in2="BackgroundImageFix" result="effect1_dropShadow_486_50"/>
<feBlend mode="normal" in="SourceGraphic" in2="effect1_dropShadow_486_50" result="shape"/>
</filter>
<clipPath id="clip0_486_50">
<rect width="1920" height="961" fill="white"/>
</clipPath>
</defs>
</svg>
