<svg xmlns="http://www.w3.org/2000/svg" width="137" height="125" viewBox="0 0 137 125" fill="none">
  <g clip-path="url(#clip0_384_891)">
    <path d="M108.363 21.8031L104.366 19.4875L101.812 18.0117L93.7954 13.3665L90.891 11.6869L72.6199 1.10685C70.0693 -0.368949 66.9301 -0.368949 64.3795 1.10685L45.9577 11.7712L43.2775 13.3243L35.3034 17.9415L32.4059 19.6211L28.6361 21.8031C26.0855 23.2789 24.5159 26.0057 24.5159 28.9572V70.3498C24.5159 73.3049 26.0855 76.0317 28.6361 77.5075L64.3795 98.2038C66.9301 99.6796 70.0693 99.6796 72.6199 98.2038L108.363 77.5075C110.91 76.0317 112.48 73.3049 112.48 70.3498V28.9572C112.48 26.0057 110.91 23.2789 108.363 21.8031Z" fill="#FCFFF8"/>
    <path d="M110.207 70.2786C110.207 72.4572 109.044 74.4776 107.162 75.5669L71.5448 96.1894C69.6599 97.2822 67.3406 97.2822 65.4557 96.1894L29.8384 75.5669C27.9535 74.4776 26.7903 72.4572 26.7903 70.2786V29.0301C26.7903 26.848 27.9535 24.8311 29.8384 23.7418L32.7534 22.0552L35.6018 20.4037L45.0999 14.9046L47.6996 13.3972L65.4557 3.11579C67.3406 2.02651 69.6599 2.02651 71.5448 3.11579L89.1468 13.3093L91.9777 14.9468L101.514 20.4705L104.023 21.9252L107.162 23.7418C109.044 24.8311 110.207 26.848 110.207 29.0301V70.2786Z" fill="url(#paint0_linear_384_891)"/>
    <path d="M105.797 57.4735C105.664 51.2997 103.975 44.9151 100.987 39.1279C100.714 38.5938 100.426 38.0667 100.128 37.5432C101.085 34.6302 103.008 28.3265 104.024 21.9243C104.154 21.1126 104.27 20.2974 104.364 19.4857C105.026 13.9199 104.816 8.60701 102.483 5.7538C100.146 5.27944 96.1834 6.94849 90.893 11.6816C90.329 12.1876 89.7474 12.7287 89.1483 13.3085C87.0356 15.3535 84.7443 17.8483 82.2778 20.8491C81.8328 20.6523 81.3809 20.4626 80.9254 20.2834C77.1415 18.79 73.0108 17.9502 68.5893 17.9502C64.1678 17.9502 59.9215 18.8111 56.0921 20.3466C55.5876 20.5469 55.0866 20.7612 54.5961 20.9861C52.1226 17.9678 49.8207 15.4554 47.7046 13.3998C47.109 12.8201 46.5309 12.2789 45.9633 11.7729C40.6239 6.9766 36.6263 5.27944 34.2754 5.75732C31.9245 8.63161 31.7283 14.0077 32.408 19.6228C32.5061 20.431 32.6217 21.2426 32.7548 22.0578C33.8339 28.7833 35.9046 35.3857 36.7839 38.0175C36.5597 38.4251 36.339 38.8327 36.1288 39.2474C33.2874 44.7921 31.6372 50.871 31.399 56.7918C31.3744 57.2907 31.3674 57.7862 31.3674 58.2816C31.3674 58.4889 31.3674 58.6927 31.3779 58.8965C32.9335 58.5171 34.5662 58.3168 36.2409 58.3168C42.9572 58.3168 48.9203 61.5495 52.6726 66.5461C54.8834 58.6225 61.1758 52.9055 68.5893 52.9055C76.0029 52.9055 82.0746 58.4222 84.3869 66.1315C88.1568 61.7462 93.7379 58.9703 99.9638 58.9703C101.971 58.9703 103.916 59.2585 105.752 59.7961C105.794 59.2971 105.815 58.7911 105.815 58.2816C105.815 58.0146 105.815 57.7475 105.804 57.477L105.797 57.4735ZM84.7233 34.6689C86.5311 34.6689 89.1938 36.2817 89.1938 38.6922C89.1938 40.305 88.3775 41.563 84.9615 41.5032C81.5455 41.4435 79.8953 41.0816 79.7167 39.5495C79.538 38.0175 81.4054 34.5599 84.7233 34.6689ZM56.4004 39.5495C56.2217 41.0851 54.5716 41.4435 51.1556 41.5032C47.7361 41.563 46.9233 40.305 46.9233 38.6922C46.9233 36.2817 49.5825 34.6689 51.3938 34.6689C54.7082 34.5599 56.5791 38.0175 56.4004 39.5495Z" fill="#E8883A"/>
    <path d="M105.745 59.7911C104.81 71.4323 93.2236 79.3067 82.7689 83.4179C81.8265 83.7903 80.891 84.1312 79.9731 84.4404C75.3484 86.004 71.1791 86.7841 68.583 86.7841C65.7941 86.7841 61.1869 85.881 56.1488 84.0749C55.5707 83.8676 54.9856 83.6462 54.397 83.4143C43.6796 79.2013 31.764 71.0247 31.3716 58.8915C32.9307 58.512 34.5598 58.3082 36.2345 58.3082C42.9509 58.3082 48.9174 61.5409 52.6663 66.5375C54.877 58.6139 61.1659 52.897 68.583 52.897C76 52.897 82.0682 58.4136 84.3806 66.1264C88.1504 61.7412 93.7316 58.9653 99.9574 58.9653C101.968 58.9653 103.909 59.2534 105.745 59.7946V59.7911Z" fill="#E0D6D0"/>
    <path d="M45.8927 43.4602C47.0839 42.8312 60.1347 48.0317 60.0752 52.2763C60.0752 52.2763 59.7458 53.0248 55.1001 52.2763C50.4509 51.5279 46.7861 49.8659 45.3287 48.0106C44.7926 46.2115 45.4478 44.2684 45.8962 43.4637L45.8927 43.4602Z" fill="black"/>
    <path d="M91.2696 43.4602C90.0784 42.8312 77.0276 48.0317 77.0871 52.2763C77.0871 52.2763 77.4165 53.0248 82.0622 52.2763C86.7114 51.5279 90.3761 49.8659 91.8336 48.0106C92.3697 46.2115 91.7145 44.2684 91.2661 43.4637L91.2696 43.4602Z" fill="black"/>
    <path d="M106.886 50.405C105.856 46.6171 104.482 42.0597 102.261 37.5058C101.928 38.0715 101.511 38.6337 100.982 39.1292C100.754 39.3435 100.502 39.5508 100.229 39.7371C97.3068 41.7399 82.5288 23.6333 81.0397 22.1399C80.5422 21.641 80.6053 20.9663 80.9171 20.2882C81.1974 19.6697 81.6774 19.0443 82.1188 18.5488C78.3946 17.1398 74.0992 16.1735 69.1276 15.8011C68.9139 15.7835 68.7002 15.7729 68.4865 15.7554C68.2727 15.7729 68.059 15.7835 67.8488 15.8011C62.8808 16.1735 58.5854 17.1433 54.8576 18.5488C55.3131 19.0619 55.8141 19.7119 56.0838 20.3514C56.3711 21.012 56.4167 21.6621 55.9367 22.1435C54.4477 23.6368 39.6661 41.7435 36.7476 39.7406C36.5234 39.586 36.3132 39.4243 36.1205 39.2487C35.5319 38.7251 35.0729 38.1207 34.7156 37.5093C32.4978 42.0632 31.1244 46.6206 30.0944 50.4085C28.8576 54.7972 29.8877 55.8619 31.3521 56.7966C31.3627 56.7966 31.3767 56.7931 31.3872 56.7931C40.994 55.3173 47.0341 57.5134 52.1914 63.0898C54.1709 56.9301 61.2061 51.4486 68.49 51.4275C75.6653 51.4029 82.287 55.8338 85.0233 62.8755C90.1876 57.292 98.463 55.5351 105.736 57.5169C105.754 57.5064 105.771 57.4958 105.785 57.4818C107.222 56.5366 108.098 54.748 106.875 50.412L106.886 50.405ZM84.722 34.6737C86.5298 34.6737 89.1926 36.2865 89.1926 38.697C89.1926 40.3098 88.3762 41.5678 84.9602 41.508C81.5443 41.4483 79.8941 41.0864 79.7154 39.5544C79.5367 38.0223 81.4041 34.5648 84.722 34.6737ZM51.3961 34.6737C54.7104 34.5648 56.5813 38.0223 56.4027 39.5544C56.224 41.0899 54.5738 41.4483 51.1578 41.508C47.7383 41.5678 46.9255 40.3098 46.9255 38.697C46.9255 36.2865 49.5847 34.6737 51.3961 34.6737ZM60.0639 52.5449C59.64 52.7487 59.1179 52.7417 58.5714 52.7417C57.6534 52.7417 56.4622 52.6362 55.0328 52.4289C50.1488 51.7227 46.2213 50.145 44.5256 48.2053L44.3889 48.0472L44.3259 47.8575C43.6742 45.8968 44.438 43.8552 44.9915 42.9592L45.1597 42.6852L45.468 42.5411C45.7028 42.4286 45.9795 42.3724 46.3159 42.3724C48.3865 42.3724 57.7936 45.4857 60.5614 51.0445C60.8347 51.5962 60.621 52.2813 60.0674 52.5449H60.0639ZM92.8923 47.8575L92.8293 48.0472L92.6926 48.2053C90.9969 50.145 87.0729 51.7227 82.1889 52.4289C80.7595 52.6362 79.5648 52.7417 78.6503 52.7417C78.1003 52.7417 77.5782 52.7487 77.1543 52.5449C76.6007 52.2813 76.387 51.5962 76.6603 51.0445C79.4281 45.4821 88.8317 42.3724 90.9058 42.3724C91.2386 42.3724 91.5189 42.4286 91.7537 42.5411L92.062 42.6852L92.2301 42.9592C92.7837 43.8552 93.544 45.8968 92.8958 47.8575H92.8923Z" fill="#0F3029"/>
    <path d="M89.1907 38.6938C89.1907 40.3066 88.3744 41.5646 84.9584 41.5048C81.5424 41.4451 79.8922 41.0832 79.7135 39.5512C79.5349 38.0191 81.4023 34.5616 84.7201 34.6705C86.528 34.6705 89.1907 36.2833 89.1907 38.6938Z" fill="#E0D6D0"/>
    <path d="M56.4006 39.5512C56.2219 41.0867 54.5718 41.4451 51.1558 41.5048C47.7363 41.5646 46.9235 40.3066 46.9235 38.6938C46.9235 36.2833 49.5827 34.6705 51.394 34.6705C54.7084 34.5616 56.5793 38.0191 56.4006 39.5512Z" fill="#E0D6D0"/>
    <path d="M71.895 73.9829V74.6962L70.9 75.3392L70.1993 74.7419L68.903 76.042H68.2163L66.92 74.7419L66.2193 75.3392L65.2242 74.6962V73.9829H71.895Z" fill="black"/>
    <path d="M78.4409 71.1719L75.4979 77.2297L74.9163 72.5774C74.9163 72.5774 71.2761 73.1747 68.5854 73.1818H68.5328C68.0668 73.1818 67.5693 73.1607 67.0718 73.129C64.6894 72.985 62.2054 72.5774 62.2054 72.5774L61.6238 77.2297L58.6808 71.1719H61.876L62.0863 71.6111H66.0243L66.7986 70.3637H67.3626V67.4999C67.2645 67.4613 67.1664 67.4261 67.0753 67.3875C62.3525 65.4795 63.1548 62.3065 63.1548 60.6059C63.1548 58.9052 65.4006 58.5327 65.4006 58.5327H71.7281C71.7281 58.5327 73.9739 58.87 73.9739 60.6059C73.9739 62.3417 74.8077 65.606 69.7626 67.4964V70.3602H70.3266L71.1009 71.6076H75.0389L75.2492 71.1683H78.4444L78.4409 71.1719Z" fill="black"/>
    <path d="M68.497 18.4736C72.4735 27.1879 72.5015 40.5227 68.497 49.2335C64.4924 40.5263 64.5204 27.1914 68.497 18.4736Z" fill="#E0D6D0"/>
    <path d="M53.8427 51.0041C54.816 51.0041 55.605 50.2128 55.605 49.2367C55.605 48.2605 54.816 47.4692 53.8427 47.4692C52.8695 47.4692 52.0804 48.2605 52.0804 49.2367C52.0804 50.2128 52.8695 51.0041 53.8427 51.0041Z" fill="#E0D6D0"/>
    <path d="M83.2723 51.0041C84.2456 51.0041 85.0346 50.2128 85.0346 49.2367C85.0346 48.2605 84.2456 47.4692 83.2723 47.4692C82.299 47.4692 81.51 48.2605 81.51 49.2367C81.51 50.2128 82.299 51.0041 83.2723 51.0041Z" fill="#E0D6D0"/>
    <g style="mix-blend-mode:multiply" opacity="0.61">
      <path d="M36.0555 8.04834C36.0555 8.04834 47.1513 14.8651 51.6674 22.5533C47.1233 28.3195 43.6513 32.5958 39.44 35.4314C35.3583 25.1746 33.8763 10.5818 36.0555 8.04834Z" fill="#A05E3E"/>
    </g>
    <g style="mix-blend-mode:multiply" opacity="0.61">
      <path d="M101.067 8.04834C101.067 8.04834 89.9708 14.8651 85.4547 22.5533C89.9988 28.3195 93.4709 32.5958 97.6822 35.4314C101.764 25.1746 103.246 10.5818 101.067 8.04834Z" fill="#A05E3E"/>
    </g>
    <path d="M5.18178 113.266L5.24834 113.421C5.53914 113.934 6.05066 114.113 6.55868 114.289C7.73588 114.668 8.98315 114.935 10.1393 115.427C10.6053 115.627 11.0748 115.873 11.4952 116.161C12.0943 116.587 12.6304 117.121 12.9632 117.788C13.5868 118.993 13.5413 120.487 12.9177 121.713C12.3185 122.918 11.2044 123.853 9.96064 124.391C8.71688 124.928 7.31545 125.058 5.98059 124.97C3.78035 124.816 1.60113 124.011 0 122.497L3.0446 119.665C4.20078 120.824 5.84745 121.492 7.46961 121.45C8.35951 121.429 9.4246 121.024 9.27044 119.977C9.24942 119.89 9.22489 119.823 9.20387 119.777C8.89205 119.085 8.2474 118.818 7.62376 118.618C6.64627 118.284 5.62323 118.083 4.64573 117.75C3.66824 117.416 2.71176 116.945 2.02156 116.165C1.28931 115.385 0.910928 114.313 0.910928 113.245C0.931949 112.173 1.35588 111.105 2.08813 110.325C2.86592 109.432 3.97655 108.898 5.13273 108.586C6.55517 108.185 8.06872 108.16 9.51219 108.452C11.0012 108.744 12.4237 109.39 13.6254 110.346L12.3571 111.572C11.8 112.131 11.2009 112.686 10.6228 113.245C9.57875 112.064 7.86551 111.506 6.33095 111.885C5.68629 112.04 4.95404 112.486 5.17477 113.266H5.18178Z" fill="#FCFFF8"/>
    <path d="M26.6783 108.875H30.4586V124.416H26.6783V119.065H20.7432V124.416H16.9629V108.875H20.7432V115.273H26.6783V108.875Z" fill="#FCFFF8"/>
    <path d="M35.1257 108.83H38.9061V124.371H35.1257V108.83Z" fill="#FCFFF8"/>
    <path d="M55.9575 116.521C56.6232 117.347 57.0471 118.394 57.0471 119.554C57.0471 122.207 54.8679 124.371 52.2227 124.371H43.3517V108.83H52.0686C54.7138 108.83 56.893 111.015 56.893 113.668C56.893 114.74 56.5391 115.72 55.9575 116.521ZM47.132 114.715H52.0686C52.6256 114.715 53.0916 114.248 53.0916 113.668C53.0916 113.088 52.6256 112.642 52.0686 112.642H47.132V114.715ZM53.2458 119.554C53.2458 118.974 52.7553 118.507 52.1772 118.507H47.1285V120.58H52.2192C52.7763 120.58 53.2423 120.112 53.2423 119.554H53.2458Z" fill="#FCFFF8"/>
    <path d="M69.989 122.498H63.6511L62.9188 124.417H58.8267L64.8073 108.83H68.8083L74.8134 124.417H70.7213L69.9855 122.498H69.989ZM68.5456 118.707L66.8113 114.202L65.098 118.707H68.5456Z" fill="#FCFFF8"/>
    <path d="M91.9538 116.613C91.9538 120.892 88.4852 124.371 84.2179 124.371H77.6382V108.83H84.2179C88.4852 108.83 91.9538 112.329 91.9538 116.613ZM88.1734 116.613C88.1734 114.427 86.3936 112.642 84.2144 112.642H81.4115V120.58H84.2144C86.3936 120.58 88.1734 118.795 88.1734 116.609V116.613Z" fill="#FCFFF8"/>
    <path d="M95.7362 108.83H99.5166V124.371H95.7362V108.83Z" fill="#FCFFF8"/>
    <path d="M114.189 108.875H117.969V124.417H113.835L107.743 115.141V124.371H103.962V108.805H108.121L114.193 118.036V108.872L114.189 108.875Z" fill="#FCFFF8"/>
    <path d="M136.999 116.589C136.999 121.006 133.443 124.573 129.039 124.573C124.635 124.573 121.079 121.006 121.079 116.589C121.079 112.172 124.66 108.606 129.039 108.606C133.419 108.606 136.999 112.197 136.999 116.589ZM133.219 116.589C133.219 114.27 131.352 112.397 129.039 112.397C126.727 112.397 124.859 114.27 124.859 116.589C124.859 118.908 126.748 120.781 129.039 120.781C131.331 120.781 133.219 118.908 133.219 116.589Z" fill="#FCFFF8"/>
  </g>
  <defs>
    <linearGradient id="paint0_linear_384_891" x1="26.7903" y1="49.6526" x2="110.207" y2="49.6526" gradientUnits="userSpaceOnUse">
      <stop stop-color="#4D7249"/>
      <stop offset="1" stop-color="#557E52"/>
    </linearGradient>
    <clipPath id="clip0_384_891">
      <rect width="137" height="125" fill="white"/>
    </clipPath>
  </defs>
</svg>