<svg width="58" height="66" viewBox="0 0 58 66" fill="none" xmlns="http://www.w3.org/2000/svg">
<path d="M54.607 14.3029L52.0392 12.7838L50.3986 11.8157L45.2495 8.76843L43.3839 7.66661L31.6477 0.726092C30.0094 -0.242031 27.9929 -0.242031 26.3546 0.726092L14.5216 7.72193L12.8 8.74077L7.67797 11.7696L5.81683 12.8714L3.39533 14.3029C1.75699 15.271 0.748779 17.0597 0.748779 18.996V46.1495C0.748779 48.088 1.75699 49.8768 3.39533 50.8449L26.3546 64.4217C27.9929 65.3898 30.0094 65.3898 31.6477 64.4217L54.607 50.8449C56.243 49.8768 57.2513 48.088 57.2513 46.1495V18.996C57.2513 17.0597 56.243 15.271 54.607 14.3029Z" fill="#FCFFF8"/>
<path d="M55.7911 46.103C55.7911 47.5322 55.0439 48.8576 53.8354 49.5721L30.9572 63.1005C29.7464 63.8174 28.2566 63.8174 27.0459 63.1005L4.16762 49.5721C2.95687 48.8576 2.20972 47.5322 2.20972 46.103V19.044C2.20972 17.6126 2.95687 16.2895 4.16762 15.5749L6.04001 14.4685L7.86964 13.3851L13.9707 9.77768L15.6405 8.78882L27.0459 2.04423C28.2566 1.32966 29.7464 1.32966 30.9572 2.04423L42.2635 8.73119L44.0819 9.80534L50.2077 13.4289L51.819 14.3832L53.8354 15.5749C55.0439 16.2895 55.7911 17.6126 55.7911 19.044V46.103Z" fill="url(#paint0_linear_34_290)"/>
<path d="M52.9588 37.7026C52.8732 33.6526 51.7885 29.4643 49.8689 25.6679C49.6933 25.3175 49.5088 24.9718 49.3175 24.6283C49.9319 22.7174 51.1674 18.5822 51.82 14.3824C51.9033 13.8499 51.9776 13.3151 52.0383 12.7826C52.4637 9.13144 52.3286 5.6462 50.8298 3.77449C49.3288 3.46331 46.7835 4.55821 43.3853 7.66312C43.0229 7.99505 42.6494 8.35003 42.2645 8.73036C40.9075 10.0719 39.4357 11.7085 37.8514 13.677C37.5656 13.5479 37.2753 13.4235 36.9827 13.3059C34.5522 12.3262 31.8989 11.7753 29.0588 11.7753C26.2187 11.7753 23.4911 12.3401 21.0314 13.3474C20.7073 13.4788 20.3855 13.6194 20.0704 13.7669C18.4816 11.7869 17.003 10.1387 15.6438 8.79029C15.2612 8.40996 14.8899 8.05498 14.5253 7.72305C11.0956 4.57665 8.52779 3.46331 7.01773 3.7768C5.50767 5.66233 5.38164 9.18907 5.81823 12.8725C5.88124 13.4027 5.95551 13.9352 6.04103 14.4699C6.73417 18.8818 8.0642 23.213 8.62906 24.9395C8.48503 25.2069 8.34325 25.4743 8.20823 25.7463C6.3831 29.3836 5.32313 33.3714 5.1701 37.2554C5.15434 37.5827 5.14984 37.9077 5.14984 38.2327C5.14984 38.3687 5.14984 38.5024 5.15659 38.6361C6.1558 38.3872 7.20452 38.2558 8.28024 38.2558C12.5944 38.2558 16.4247 40.3765 18.8349 43.6542C20.255 38.4563 24.2968 34.706 29.0588 34.706C33.8208 34.706 37.7208 38.325 39.2062 43.3822C41.6277 40.5055 45.2127 38.6845 49.2117 38.6845C50.5012 38.6845 51.7503 38.8736 52.9295 39.2262C52.9565 38.8989 52.97 38.567 52.97 38.2327C52.97 38.0576 52.97 37.8824 52.9633 37.7049L52.9588 37.7026ZM39.4222 22.7428C40.5834 22.7428 42.2938 23.8008 42.2938 25.3821C42.2938 26.4401 41.7694 27.2653 39.5752 27.2261C37.381 27.1869 36.3211 26.9495 36.2063 25.9445C36.0915 24.9395 37.291 22.6713 39.4222 22.7428ZM21.2294 25.9445C21.1147 26.9518 20.0547 27.1869 17.8605 27.2261C15.664 27.2653 15.1419 26.4401 15.1419 25.3821C15.1419 23.8008 16.85 22.7428 18.0135 22.7428C20.1425 22.6713 21.3442 24.9395 21.2294 25.9445Z" fill="#E8883A"/>
<path d="M52.9254 39.2232C52.3245 46.8598 44.8822 52.0255 38.1668 54.7224C37.5614 54.9667 36.9606 55.1903 36.3709 55.3932C33.4003 56.4189 30.7223 56.9306 29.0547 56.9306C27.2633 56.9306 24.3039 56.3382 21.0678 55.1534C20.6964 55.0174 20.3206 54.8722 19.9425 54.7201C13.0584 51.9563 5.40452 46.5925 5.15247 38.6331C6.15392 38.3842 7.20039 38.2505 8.27611 38.2505C12.5903 38.2505 16.4228 40.3711 18.8308 43.6489C20.2508 38.451 24.2904 34.7007 29.0547 34.7007C33.8189 34.7007 37.7167 38.3196 39.202 43.3792C41.6235 40.5025 45.2085 38.6815 49.2076 38.6815C50.4994 38.6815 51.7461 38.8705 52.9254 39.2255V39.2232Z" fill="#E0D6D0"/>
<path d="M14.48 28.5097C15.2451 28.0971 23.6281 31.5086 23.5899 34.2931C23.5899 34.2931 23.3783 34.7841 20.3942 34.2931C17.4078 33.8021 15.0538 32.7118 14.1177 31.4948C13.7733 30.3146 14.1942 29.0399 14.4822 28.512L14.48 28.5097Z" fill="black"/>
<path d="M43.6271 28.5097C42.8619 28.0971 34.4789 31.5086 34.5172 34.2931C34.5172 34.2931 34.7287 34.7841 37.7128 34.2931C40.6992 33.8021 43.0532 32.7118 43.9894 31.4948C44.3337 30.3146 43.9129 29.0399 43.6248 28.512L43.6271 28.5097Z" fill="black"/>
<path d="M53.6578 33.0656C52.9962 30.5807 52.114 27.5911 50.6872 24.6037C50.4734 24.9748 50.2056 25.3437 49.8658 25.6687C49.7195 25.8093 49.5575 25.9453 49.3819 26.0674C47.505 27.3813 38.0126 15.5034 37.0561 14.5237C36.7365 14.1964 36.7771 13.7538 36.9773 13.309C37.1574 12.9033 37.4657 12.493 37.7493 12.168C35.357 11.2436 32.5979 10.6098 29.4045 10.3654C29.2672 10.3539 29.13 10.347 28.9927 10.3354C28.8554 10.347 28.7181 10.3539 28.5831 10.3654C25.3919 10.6098 22.6329 11.2459 20.2384 12.168C20.5309 12.5045 20.8528 12.9309 21.026 13.3505C21.2106 13.7838 21.2398 14.2102 20.9315 14.526C19.9751 15.5057 10.4803 27.3836 8.60571 26.0697C8.46168 25.9683 8.32665 25.8623 8.20287 25.747C7.8248 25.4036 7.52998 25.0071 7.30044 24.606C5.87589 27.5934 4.99371 30.583 4.33207 33.0679C3.53766 35.9469 4.19929 36.6453 5.13999 37.2585C5.14674 37.2585 5.15574 37.2562 5.16249 37.2562C11.3333 36.2881 15.2131 37.7287 18.5258 41.3868C19.7973 37.3461 24.3162 33.7502 28.9949 33.7364C33.6039 33.7202 37.8573 36.6269 39.6149 41.2462C42.9321 37.5835 48.2477 36.431 52.9197 37.731C52.9309 37.7241 52.9422 37.7172 52.9512 37.708C53.8739 37.0879 54.4365 35.9146 53.6511 33.0702L53.6578 33.0656ZM39.4214 22.7459C40.5826 22.7459 42.2929 23.8039 42.2929 25.3851C42.2929 26.4432 41.7686 27.2684 39.5744 27.2292C37.3802 27.19 36.3202 26.9526 36.2054 25.9476C36.0907 24.9426 37.2902 22.6744 39.4214 22.7459ZM18.0149 22.7459C20.1439 22.6744 21.3456 24.9426 21.2308 25.9476C21.1161 26.9549 20.0561 27.19 17.8619 27.2292C15.6654 27.2684 15.1433 26.4432 15.1433 25.3851C15.1433 23.8039 16.8514 22.7459 18.0149 22.7459ZM23.5826 34.4694C23.3103 34.6031 22.9749 34.5985 22.6239 34.5985C22.0342 34.5985 21.2691 34.5293 20.3509 34.3933C17.2137 33.93 14.691 32.895 13.6017 31.6226L13.514 31.5189L13.4735 31.3944C13.0549 30.1082 13.5455 28.769 13.9011 28.1812L14.0091 28.0014L14.2071 27.9069C14.3579 27.8331 14.5357 27.7962 14.7517 27.7962C16.0818 27.7962 22.1243 29.8385 23.9021 33.4851C24.0777 33.847 23.9404 34.2965 23.5848 34.4694H23.5826ZM44.6694 31.3944L44.6289 31.5189L44.5412 31.6226C43.4519 32.895 40.9314 33.93 37.7943 34.3933C36.8761 34.5293 36.1087 34.5985 35.5213 34.5985C35.168 34.5985 34.8327 34.6031 34.5603 34.4694C34.2048 34.2965 34.0675 33.847 34.243 33.4851C36.0209 29.8362 42.0611 27.7962 43.3934 27.7962C43.6072 27.7962 43.7873 27.8331 43.938 27.9069L44.1361 28.0014L44.2441 28.1812C44.5997 28.769 45.088 30.1082 44.6717 31.3944H44.6694Z" fill="#0F3029"/>
<path d="M42.2918 25.3831C42.2918 26.4411 41.7674 27.2664 39.5732 27.2272C37.379 27.188 36.319 26.9506 36.2043 25.9456C36.0895 24.9406 37.289 22.6724 39.4202 22.7438C40.5814 22.7438 42.2918 23.8019 42.2918 25.3831Z" fill="#E0D6D0"/>
<path d="M21.2295 25.9456C21.1148 26.9529 20.0548 27.188 17.8606 27.2272C15.6641 27.2664 15.142 26.4411 15.142 25.3831C15.142 23.8019 16.8501 22.7438 18.0136 22.7438C20.1426 22.6724 21.3443 24.9406 21.2295 25.9456Z" fill="#E0D6D0"/>
<path d="M31.1821 48.5327V49.0006L30.543 49.4225L30.0929 49.0306L29.2602 49.8835H28.8191L27.9864 49.0306L27.5363 49.4225L26.8972 49.0006V48.5327H31.1821Z" fill="black"/>
<path d="M35.3867 46.6887L33.4963 50.6627L33.1228 47.6108C33.1228 47.6108 30.7845 48.0026 29.0562 48.0072H29.0224C28.7231 48.0072 28.4035 47.9934 28.084 47.9727C26.5536 47.8781 24.9581 47.6108 24.9581 47.6108L24.5845 50.6627L22.6941 46.6887H24.7465L24.8815 46.9769H27.4111L27.9084 46.1586H28.2707V44.28C28.2077 44.2546 28.1447 44.2316 28.0862 44.2062C25.0526 42.9546 25.5679 40.8731 25.5679 39.7574C25.5679 38.6418 27.0105 38.3975 27.0105 38.3975H31.0748C31.0748 38.3975 32.5174 38.6187 32.5174 39.7574C32.5174 40.8961 33.053 43.0375 29.8123 44.2777V46.1563H30.1746L30.672 46.9746H33.2015L33.3365 46.6864H35.389L35.3867 46.6887Z" fill="black"/>
<path d="M28.9994 12.1187C31.5537 17.8352 31.5717 26.5829 28.9994 32.2971C26.4271 26.5852 26.4452 17.8375 28.9994 12.1187Z" fill="#E0D6D0"/>
<path d="M19.5865 33.4585C20.2117 33.4585 20.7185 32.9394 20.7185 32.2991C20.7185 31.6587 20.2117 31.1396 19.5865 31.1396C18.9613 31.1396 18.4545 31.6587 18.4545 32.2991C18.4545 32.9394 18.9613 33.4585 19.5865 33.4585Z" fill="#E0D6D0"/>
<path d="M38.4901 33.4585C39.1153 33.4585 39.6221 32.9394 39.6221 32.2991C39.6221 31.6587 39.1153 31.1396 38.4901 31.1396C37.865 31.1396 37.3582 31.6587 37.3582 32.2991C37.3582 32.9394 37.865 33.4585 38.4901 33.4585Z" fill="#E0D6D0"/>
<g style="mix-blend-mode:multiply" opacity="0.61">
<path d="M8.16116 5.27979C8.16116 5.27979 15.2884 9.75159 18.1892 14.7951C15.2704 18.5776 13.0402 21.3829 10.3351 23.2431C7.71332 16.5146 6.76137 6.94173 8.16116 5.27979Z" fill="#A05E3E"/>
</g>
<g style="mix-blend-mode:multiply" opacity="0.61">
<path d="M49.9201 5.27979C49.9201 5.27979 42.7929 9.75159 39.892 14.7951C42.8109 18.5776 45.0411 21.3829 47.7462 23.2431C50.368 16.5146 51.3199 6.94173 49.9201 5.27979Z" fill="#A05E3E"/>
</g>
<defs>
<linearGradient id="paint0_linear_34_290" x1="2.20972" y1="32.5724" x2="55.7911" y2="32.5724" gradientUnits="userSpaceOnUse">
<stop stop-color="#4D7249"/>
<stop offset="1" stop-color="#557E52"/>
</linearGradient>
</defs>
</svg>
