<svg width="43" height="43" viewBox="0 0 43 43" fill="none" xmlns="http://www.w3.org/2000/svg">
<g clip-path="url(#clip0_384_962)">
<g clip-path="url(#clip1_384_962)">
<mask id="mask0_384_962" style="mask-type:luminance" maskUnits="userSpaceOnUse" x="1" y="1" width="41" height="41">
<path d="M41.7673 1.11523H1.14453V41.738H41.7673V1.11523Z" fill="white"/>
</mask>
<g mask="url(#mask0_384_962)">
<path d="M21.4559 41.738C32.6736 41.738 41.7673 32.6443 41.7673 21.4266C41.7673 10.209 32.6736 1.11523 21.4559 1.11523C10.2383 1.11523 1.14453 10.209 1.14453 21.4266C1.14453 32.6443 10.2383 41.738 21.4559 41.738Z" fill="url(#paint0_linear_384_962)"/>
<path d="M12.8932 26.519C13.0421 26.3701 13.2469 26.2832 13.4641 26.2832H33.162C33.522 26.2832 33.702 26.7176 33.4475 26.972L29.5563 30.8632C29.4074 31.0122 29.2026 31.099 28.9854 31.099H9.28745C8.92751 31.099 8.74753 30.6647 9.00198 30.4102L12.8932 26.519Z" fill="white"/>
<path d="M12.8932 11.9897C13.0483 11.8408 13.2531 11.7539 13.4641 11.7539H33.162C33.522 11.7539 33.702 12.1883 33.4475 12.4428L29.5563 16.3339C29.4074 16.4829 29.2026 16.5697 28.9854 16.5697H9.28745C8.92751 16.5697 8.74753 16.1354 9.00198 15.8809L12.8932 11.9897Z" fill="white"/>
<path d="M29.5563 19.2085C29.4074 19.0595 29.2026 18.9727 28.9854 18.9727H9.28745C8.92751 18.9727 8.74753 19.4071 9.00198 19.6615L12.8932 23.5527C13.0421 23.7016 13.2469 23.7885 13.4641 23.7885H33.162C33.522 23.7885 33.702 23.3541 33.4475 23.0996L29.5563 19.2085Z" fill="white"/>
</g>
</g>
</g>
<defs>
<linearGradient id="paint0_linear_384_962" x1="21.4559" y1="1.11523" x2="21.4559" y2="41.738" gradientUnits="userSpaceOnUse">
<stop stop-color="#11EFAA"/>
<stop offset="1" stop-color="#D428FC"/>
</linearGradient>
<clipPath id="clip0_384_962">
<rect width="41.59" height="41.59" fill="white" transform="translate(0.660156 0.630859)"/>
</clipPath>
<clipPath id="clip1_384_962">
<rect width="41.59" height="40.6228" fill="white" transform="translate(0.660156 1.11523)"/>
</clipPath>
</defs>
</svg>
