<svg width="35" height="36" viewBox="0 0 35 36" fill="none" xmlns="http://www.w3.org/2000/svg">
<path d="M12.9386 18.0733C12.0471 19.3582 11.3233 20.8566 10.8459 22.6011C10.5037 21.5655 10.057 20.4357 9.46448 19.2992C8.39284 17.2436 6.83058 15.1407 4.5211 13.5388C3.23776 12.6487 1.74153 11.9257 0 11.4484C1.03458 11.1063 2.16312 10.66 3.29824 10.0682C5.35434 8.99635 7.45767 7.43373 9.05994 5.12429C9.95066 3.84036 10.6741 2.34341 11.1514 0.601074C11.4932 1.6359 11.9394 2.76487 12.5311 3.90046C13.6023 5.95613 15.1643 8.05909 17.4742 9.66106C18.7587 10.5519 20.2564 11.2751 22 11.7523C20.9652 12.094 19.8361 12.5399 18.7006 13.1313C16.6445 14.2023 14.541 15.7641 12.9386 18.0733Z" fill="white"/>
<path d="M28.8218 32.5139C28.2139 33.39 27.7204 34.4117 27.395 35.6011C27.1616 34.895 26.857 34.1247 26.4531 33.3498C25.7224 31.9482 24.6572 30.5145 23.0826 29.4222C22.2076 28.8153 21.1874 28.3224 20 27.997C20.7054 27.7637 21.4749 27.4594 22.2488 27.056C23.6507 26.3251 25.0848 25.2597 26.1772 23.6851C26.7845 22.8097 27.2778 21.789 27.6032 20.6011C27.8363 21.3066 28.1405 22.0764 28.5439 22.8507C29.2743 24.2522 30.3393 25.6861 31.9143 26.7783C32.79 27.3857 33.8112 27.8788 35 28.2042C34.2944 28.4372 33.5246 28.7412 32.7504 29.1444C31.3485 29.8746 29.9143 30.9395 28.8218 32.5139Z" fill="white"/>
</svg>
