<svg xmlns="http://www.w3.org/2000/svg" width="417" height="151" viewBox="0 0 417 151" fill="none">
  <path d="M0.00585938 30.8538C0.00585938 30.8538 14.5275 0.515625 63.9657 0.515625C113.404 0.515625 122.931 42.9937 122.931 42.9937C122.931 42.9937 145.477 26.5297 171.491 34.3224C197.505 42.115 198.36 66.3948 198.36 66.3948C198.36 66.3948 213.969 56.8679 234.78 66.3948C255.591 75.9218 259.06 93.2645 259.06 93.2645C259.06 93.2645 281.605 81.1246 298.948 93.2645C316.291 105.404 316.291 115.81 316.291 115.81C316.291 115.81 341.426 101.08 364.85 120.134C364.85 120.134 380.459 109.728 396.067 120.134C411.676 130.54 416.879 150.172 416.879 150.172H0.00585938V30.8307V30.8538Z" fill="url(#paint0_linear_384_1021)"/>
  <defs>
    <linearGradient id="paint0_linear_384_1021" x1="214.709" y1="25.1192" x2="193.897" y2="241.926" gradientUnits="userSpaceOnUse">
      <stop stop-color="white"/>
      <stop offset="0.22" stop-color="white" stop-opacity="0.76"/>
      <stop offset="0.6" stop-color="white" stop-opacity="0.36"/>
      <stop offset="0.87" stop-color="white" stop-opacity="0.1"/>
      <stop offset="1" stop-color="white" stop-opacity="0"/>
    </linearGradient>
  </defs>
</svg>