<svg xmlns="http://www.w3.org/2000/svg" width="528" height="277" viewBox="0 0 528 277" fill="none">
  <path d="M0.00585938 14.8978C0.00585938 14.8978 5.20868 -3.02297 32.957 0.44557C60.7054 3.91411 64.1739 42.6461 64.1739 42.6461C64.1739 42.6461 75.1576 29.3964 93.0784 33.1424C110.999 36.8884 110.421 59.4108 110.421 59.4108C110.421 59.4108 128.92 30.5062 159.559 48.427C190.198 66.3478 176.902 93.5181 176.902 93.5181C176.902 93.5181 185.573 80.8001 196.557 86.581C207.54 92.3619 202.338 104.501 202.338 104.501C202.338 104.501 207.54 94.0962 219.68 98.7205C231.82 103.345 230.086 113.751 230.086 113.751C230.086 113.751 241.648 95.8305 260.725 106.236C279.802 116.641 276.911 128.781 276.911 128.781C276.911 128.781 281.536 101.611 316.799 110.282C352.063 118.954 349.358 154.98 349.358 154.98C349.358 154.98 363.232 144.575 377.106 157.686C390.98 170.797 387.118 183.122 387.118 183.122C387.118 183.122 400.23 176.185 407.167 186.59C414.104 196.996 410.635 208.165 410.635 208.165C410.635 208.165 429.527 203.147 434.915 217.414C434.915 217.414 468.028 195.863 500.979 220.998C533.93 246.134 527.224 276.171 527.224 276.171H0.00585938V14.8748V14.8978Z" fill="url(#paint0_linear_384_1020)"/>
  <defs>
    <linearGradient id="paint0_linear_384_1020" x1="375.973" y1="-326.106" x2="227.982" y2="295.156" gradientUnits="userSpaceOnUse">
      <stop offset="0.48" stop-color="white"/>
      <stop offset="0.59" stop-color="white" stop-opacity="0.76"/>
      <stop offset="0.79" stop-color="white" stop-opacity="0.36"/>
      <stop offset="0.93" stop-color="white" stop-opacity="0.1"/>
      <stop offset="1" stop-color="white" stop-opacity="0"/>
    </linearGradient>
  </defs>
</svg>