<svg xmlns="http://www.w3.org/2000/svg" width="417" height="151" viewBox="0 0 417 151" fill="none">
  <path d="M416.986 30.8469C416.986 30.8469 402.464 0.509766 353.028 0.509766C303.591 0.509766 294.065 42.9864 294.065 42.9864C294.065 42.9864 271.52 26.523 245.507 34.3154C219.493 42.1078 218.638 66.3868 218.638 66.3868C218.638 66.3868 203.03 56.8601 182.219 66.3868C161.409 75.9134 157.94 93.2555 157.94 93.2555C157.94 93.2555 135.396 81.116 118.053 93.2555C100.711 105.395 100.711 115.8 100.711 115.8C100.711 115.8 75.5768 101.071 52.1534 120.124C52.1534 120.124 36.5454 109.719 20.9375 120.124C5.32958 130.53 0.126953 150.161 0.126953 150.161H416.986V30.8238V30.8469Z" fill="url(#paint0_linear_384_1026)"/>
  <defs>
    <linearGradient id="paint0_linear_384_1026" x1="189.781" y1="-9.17871" x2="240.096" y2="257.936" gradientUnits="userSpaceOnUse">
      <stop stop-color="white"/>
      <stop offset="0.22" stop-color="white" stop-opacity="0.76"/>
      <stop offset="0.6" stop-color="white" stop-opacity="0.36"/>
      <stop offset="0.87" stop-color="white" stop-opacity="0.1"/>
      <stop offset="1" stop-color="white" stop-opacity="0"/>
    </linearGradient>
  </defs>
</svg>