<svg xmlns="http://www.w3.org/2000/svg" width="528" height="271" viewBox="0 0 528 271" fill="none">
  <path d="M527.984 8.89614C527.984 8.89614 519.638 -2.31837 491.89 1.15005C464.143 4.61847 463.818 36.6435 463.818 36.6435C463.818 36.6435 452.835 23.3942 434.916 27.1401C416.994 30.886 417.573 53.4076 417.573 53.4076C417.573 53.4076 399.075 24.504 368.437 42.4242C337.8 60.3444 351.095 87.5138 351.095 87.5138C351.095 87.5138 342.424 74.7962 331.441 80.5769C320.457 86.3576 325.66 98.4972 325.66 98.4972C325.66 98.4972 320.457 88.0918 308.318 92.7164C296.178 97.3411 297.913 107.746 297.913 107.746C297.913 107.746 286.351 89.8261 267.275 100.231C248.199 110.637 251.089 122.776 251.089 122.776C251.089 122.776 246.464 95.6068 211.202 104.278C175.94 112.949 178.645 148.974 178.645 148.974C178.645 148.974 164.771 138.569 150.898 151.68C137.024 164.79 140.885 177.115 140.885 177.115C140.885 177.115 127.775 170.178 120.838 180.583C113.901 190.989 117.369 202.157 117.369 202.157C117.369 202.157 98.4781 197.139 93.0902 211.406C93.0902 211.406 59.9783 189.856 27.0282 214.99C-5.92182 240.125 0.783788 270.161 0.783788 270.161H527.984V8.87307V8.89614Z" fill="url(#paint0_linear_384_1025)"/>
  <defs>
    <linearGradient id="paint0_linear_384_1025" x1="215.78" y1="-33.118" x2="324.458" y2="353.034" gradientUnits="userSpaceOnUse">
      <stop stop-color="white"/>
      <stop offset="0.22" stop-color="white" stop-opacity="0.76"/>
      <stop offset="0.6" stop-color="white" stop-opacity="0.36"/>
      <stop offset="0.87" stop-color="white" stop-opacity="0.1"/>
      <stop offset="1" stop-color="white" stop-opacity="0"/>
    </linearGradient>
  </defs>
</svg>