<svg width="41" height="40" viewBox="0 0 41 40" fill="none" xmlns="http://www.w3.org/2000/svg">
<g id="telegram.svg" clip-path="url(#clip0_426_709)">
<g id="Clip path group">
<mask id="mask0_426_709" style="mask-type:luminance" maskUnits="userSpaceOnUse" x="0" y="0" width="41" height="40">
<g id="a">
<path id="Vector" d="M40.4395 0H0.439453V40H40.4395V0Z" fill="white"/>
</g>
</mask>
<g mask="url(#mask0_426_709)">
<g id="Group">
<path id="Vector_2" d="M40.3581 4.20998C40.3259 4.06236 40.2552 3.92592 40.1531 3.81458C40.051 3.70324 39.9211 3.62099 39.7768 3.57623C39.2516 3.47264 38.7082 3.51148 38.2031 3.68873C38.2031 3.68873 3.15678 16.285 1.15553 17.68C0.723033 17.98 0.579283 18.1537 0.508033 18.36C0.161783 19.3525 1.23928 19.79 1.23928 19.79L10.2718 22.7337C10.4244 22.7601 10.581 22.7507 10.7293 22.7062C12.7843 21.4087 31.4031 9.65123 32.4793 9.25623C32.6481 9.20498 32.7731 9.25623 32.7456 9.38123C32.3056 10.8887 16.2268 25.1775 16.1381 25.265C16.0949 25.3004 16.061 25.3457 16.0393 25.3971C16.0175 25.4484 16.0085 25.5043 16.0131 25.56L15.1731 34.3737C15.1731 34.3737 14.8206 37.1237 17.5656 34.3737C19.5118 32.425 21.3793 30.8125 22.3156 30.0287C25.4218 32.1725 28.7643 34.5437 30.2056 35.7787C30.4474 36.0136 30.7341 36.1973 31.0485 36.3189C31.3629 36.4404 31.6987 36.4973 32.0356 36.4862C33.4106 36.4337 33.7856 34.93 33.7856 34.93C33.7856 34.93 40.1706 9.23623 40.3856 5.79248C40.4056 5.45498 40.4343 5.23873 40.4368 5.00748C40.4482 4.73926 40.4216 4.47078 40.3581 4.20998Z" fill="#53764E"/>
</g>
</g>
</g>
</g>
<defs>
<clipPath id="clip0_426_709">
<rect width="40" height="40" fill="white" transform="translate(0.439453)"/>
</clipPath>
</defs>
</svg>
