<svg width="41" height="40" viewBox="0 0 41 40" fill="none" xmlns="http://www.w3.org/2000/svg">
<g id="twitter.svg" clip-path="url(#clip0_426_719)">
<g id="Clip path group">
<mask id="mask0_426_719" style="mask-type:luminance" maskUnits="userSpaceOnUse" x="0" y="0" width="41" height="40">
<g id="a">
<path id="Vector" d="M40.6992 0H0.699219V40H40.6992V0Z" fill="white"/>
</g>
</mask>
<g mask="url(#mask0_426_719)">
<g id="Group">
<path id="Vector_2" d="M40.6992 7.625C39.1992 8.25 37.6992 8.75 35.9492 8.875C37.6992 7.875 38.9492 6.25 39.5742 4.375C37.9492 5.375 36.1992 6 34.3242 6.375C32.8242 4.75 30.6992 3.75 28.4492 3.75C23.9492 3.75 20.1992 7.375 20.1992 12C20.1992 12.625 20.3242 13.25 20.4492 13.875C13.5742 13.5 7.57422 10.25 3.44922 5.25C2.69922 6.5 2.32422 7.875 2.32422 9.375C2.32422 12.25 3.82422 14.75 5.94922 16.25C4.57422 16.25 3.32422 15.875 2.19922 15.25V15.375C2.19922 19.375 5.07422 22.625 8.82422 23.375C8.07422 23.5 7.44922 23.625 6.69922 23.625C6.19922 23.625 5.69922 23.625 5.19922 23.5C6.19922 26.75 9.32422 29.125 12.8242 29.25C10.0742 31.5 6.44922 32.75 2.57422 32.75C1.94922 32.75 1.19922 32.75 0.574219 32.625C4.32422 34.875 8.69922 36.25 13.3242 36.25C28.4492 36.25 36.6992 23.75 36.6992 12.875C36.6992 12.5 36.6992 12.125 36.6992 11.875C38.1992 10.625 39.5742 9.25 40.6992 7.625Z" fill="#53764E"/>
</g>
</g>
</g>
</g>
<defs>
<clipPath id="clip0_426_719">
<rect width="40" height="40" fill="white" transform="translate(0.699219)"/>
</clipPath>
</defs>
</svg>
